<?xml version="1.0" encoding="UTF-8" standalone="no"?>
<!DOCTYPE svg PUBLIC "-//W3C//DTD SVG 1.1//EN"
 "http://www.w3.org/Graphics/SVG/1.1/DTD/svg11.dtd">
<!-- Generated by graphviz version 2.40.1 (20161225.0304)
 -->
<!-- Title: dependencies Pages: 1 -->
<svg width="1794pt" height="284pt"
 viewBox="0.00 0.00 1794.00 284.00" xmlns="http://www.w3.org/2000/svg" xmlns:xlink="http://www.w3.org/1999/xlink">
<g id="graph0" class="graph" transform="scale(1 1) rotate(0) translate(4 280)">
<title>dependencies</title>
<polygon fill="#ffffff" stroke="transparent" points="-4,4 -4,-280 1790,-280 1790,4 -4,4"/>
<text text-anchor="start" x="872.0091" y="-42.4" font-family="sans-serif" font-weight="bold" font-size="14.00" fill="#000000">Legend</text>
<polygon fill="#ffffb3" stroke="transparent" points="659,-10 659,-30 679,-30 679,-10 659,-10"/>
<text text-anchor="start" x="682.629" y="-15.4" font-family="sans-serif" font-size="14.00" fill="#000000"> &#160;Declarations</text>
<polygon fill="#8dd3c7" stroke="transparent" points="772,-10 772,-30 792,-30 792,-10 772,-10"/>
<text text-anchor="start" x="795.7251" y="-15.4" font-family="sans-serif" font-size="14.00" fill="#000000"> &#160;Module</text>
<polygon fill="#80b1d3" stroke="transparent" points="858,-10 858,-30 878,-30 878,-10 858,-10"/>
<text text-anchor="start" x="881.7812" y="-15.4" font-family="sans-serif" font-size="14.00" fill="#000000"> &#160;Bootstrap</text>
<polygon fill="#fdb462" stroke="transparent" points="955,-10 955,-30 975,-30 975,-10 955,-10"/>
<text text-anchor="start" x="978.6732" y="-15.4" font-family="sans-serif" font-size="14.00" fill="#000000"> &#160;Providers</text>
<polygon fill="#fb8072" stroke="transparent" points="1051,-10 1051,-30 1071,-30 1071,-10 1051,-10"/>
<text text-anchor="start" x="1074.7258" y="-15.4" font-family="sans-serif" font-size="14.00" fill="#000000"> &#160;Exports</text>
<g id="clust1" class="cluster">
<title>cluster_AppModule</title>
<polygon fill="none" stroke="#000000" stroke-dasharray="1,5" points="8,-70 8,-268 1778,-268 1778,-70 8,-70"/>
</g>
<g id="clust2" class="cluster">
<title>cluster_AppModule_declarations</title>
<polygon fill="none" stroke="#000000" points="1160,-78 1160,-130 1770,-130 1770,-78 1160,-78"/>
</g>
<g id="clust7" class="cluster">
<title>cluster_AppModule_imports</title>
<polygon fill="none" stroke="#000000" points="156,-78 156,-130 1152,-130 1152,-78 156,-78"/>
</g>
<g id="clust9" class="cluster">
<title>cluster_AppModule_bootstrap</title>
<polygon fill="none" stroke="#000000" points="856,-208 856,-260 980,-260 980,-208 856,-208"/>
</g>
<g id="clust10" class="cluster">
<title>cluster_AppModule_providers</title>
<polygon fill="none" stroke="#000000" points="16,-78 16,-130 148,-130 148,-78 16,-78"/>
</g>
<!-- AppComponent -->
<g id="node1" class="node">
<title>AppComponent</title>
<polygon fill="#ffffb3" stroke="#000000" points="1761.9399,-122 1656.0601,-122 1656.0601,-86 1761.9399,-86 1761.9399,-122"/>
<text text-anchor="middle" x="1709" y="-99.8" font-family="Times,serif" font-size="14.00" fill="#000000">AppComponent</text>
</g>
<!-- AppModule -->
<g id="node5" class="node">
<title>AppModule</title>
<polygon fill="#8dd3c7" stroke="#000000" points="959.6571,-187 956.6571,-191 935.6571,-191 932.6571,-187 876.3429,-187 876.3429,-151 959.6571,-151 959.6571,-187"/>
<text text-anchor="middle" x="918" y="-164.8" font-family="Times,serif" font-size="14.00" fill="#000000">AppModule</text>
</g>
<!-- AppComponent&#45;&gt;AppModule -->
<g id="edge1" class="edge">
<title>AppComponent&#45;&gt;AppModule</title>
<path fill="none" stroke="#000000" d="M1709,-122.2479C1709,-145.0179 1709,-181 1709,-181 1709,-181 969.6911,-181 969.6911,-181"/>
<polygon fill="#000000" stroke="#000000" points="969.6911,-177.5001 959.6911,-181 969.6911,-184.5001 969.6911,-177.5001"/>
</g>
<!-- TableComponent -->
<g id="node2" class="node">
<title>TableComponent</title>
<polygon fill="#ffffb3" stroke="#000000" points="1638.705,-122 1525.295,-122 1525.295,-86 1638.705,-86 1638.705,-122"/>
<text text-anchor="middle" x="1582" y="-99.8" font-family="Times,serif" font-size="14.00" fill="#000000">TableComponent</text>
</g>
<!-- TableComponent&#45;&gt;AppModule -->
<g id="edge2" class="edge">
<title>TableComponent&#45;&gt;AppModule</title>
<path fill="none" stroke="#000000" d="M1582,-122.2843C1582,-143.3211 1582,-175 1582,-175 1582,-175 969.7877,-175 969.7877,-175"/>
<polygon fill="#000000" stroke="#000000" points="969.7877,-171.5001 959.7877,-175 969.7877,-178.5001 969.7877,-171.5001"/>
</g>
<!-- TableDetailComponent -->
<g id="node3" class="node">
<title>TableDetailComponent</title>
<polygon fill="#ffffb3" stroke="#000000" points="1507.913,-122 1360.087,-122 1360.087,-86 1507.913,-86 1507.913,-122"/>
<text text-anchor="middle" x="1434" y="-99.8" font-family="Times,serif" font-size="14.00" fill="#000000">TableDetailComponent</text>
</g>
<!-- TableDetailComponent&#45;&gt;AppModule -->
<g id="edge3" class="edge">
<title>TableDetailComponent&#45;&gt;AppModule</title>
<path fill="none" stroke="#000000" d="M1434,-122.1061C1434,-141.3391 1434,-169 1434,-169 1434,-169 969.7894,-169 969.7894,-169"/>
<polygon fill="#000000" stroke="#000000" points="969.7894,-165.5001 959.7894,-169 969.7893,-172.5001 969.7894,-165.5001"/>
</g>
<!-- TableDashboardComponent -->
<g id="node4" class="node">
<title>TableDashboardComponent</title>
<polygon fill="#ffffb3" stroke="#000000" points="1341.8459,-122 1168.1541,-122 1168.1541,-86 1341.8459,-86 1341.8459,-122"/>
<text text-anchor="middle" x="1255" y="-99.8" font-family="Times,serif" font-size="14.00" fill="#000000">TableDashboardComponent</text>
</g>
<!-- TableDashboardComponent&#45;&gt;AppModule -->
<g id="edge4" class="edge">
<title>TableDashboardComponent&#45;&gt;AppModule</title>
<path fill="none" stroke="#000000" d="M1255,-122.0225C1255,-139.3734 1255,-163 1255,-163 1255,-163 969.6608,-163 969.6608,-163"/>
<polygon fill="#000000" stroke="#000000" points="969.6608,-159.5001 959.6608,-163 969.6608,-166.5001 969.6608,-159.5001"/>
</g>
<!-- AppComponent  -->
<g id="node13" class="node">
<title>AppComponent </title>
<polygon fill="#80b1d3" stroke="#000000" points="972.439,-252 863.561,-252 863.561,-216 972.439,-216 972.439,-252"/>
<text text-anchor="middle" x="918" y="-229.8" font-family="Times,serif" font-size="14.00" fill="#000000">AppComponent </text>
</g>
<!-- AppModule&#45;&gt;AppComponent  -->
<g id="edge12" class="edge">
<title>AppModule&#45;&gt;AppComponent </title>
<path fill="none" stroke="#000000" stroke-dasharray="1,5" d="M918,-187.1061C918,-187.1061 918,-205.991 918,-205.991"/>
<polygon fill="#000000" stroke="#000000" points="914.5001,-205.9909 918,-215.991 921.5001,-205.991 914.5001,-205.9909"/>
</g>
<!-- BrowserModule -->
<g id="node6" class="node">
<title>BrowserModule</title>
<polygon fill="#8dd3c7" stroke="#000000" points="1144.4734,-122 1141.4734,-126 1120.4734,-126 1117.4734,-122 1037.5266,-122 1037.5266,-86 1144.4734,-86 1144.4734,-122"/>
<text text-anchor="middle" x="1091" y="-99.8" font-family="Times,serif" font-size="14.00" fill="#000000">BrowserModule</text>
</g>
<!-- BrowserModule&#45;&gt;AppModule -->
<g id="edge5" class="edge">
<title>BrowserModule&#45;&gt;AppModule</title>
<path fill="none" stroke="#000000" d="M1091,-122.2396C1091,-137.5706 1091,-157 1091,-157 1091,-157 969.8785,-157 969.8785,-157"/>
<polygon fill="#000000" stroke="#000000" points="969.8785,-153.5001 959.8785,-157 969.8784,-160.5001 969.8785,-153.5001"/>
</g>
<!-- FormsModule -->
<g id="node7" class="node">
<title>FormsModule</title>
<polygon fill="#8dd3c7" stroke="#000000" points="1019.8288,-122 1016.8288,-126 995.8288,-126 992.8288,-122 924.1712,-122 924.1712,-86 1019.8288,-86 1019.8288,-122"/>
<text text-anchor="middle" x="972" y="-99.8" font-family="Times,serif" font-size="14.00" fill="#000000">FormsModule</text>
</g>
<!-- FormsModule&#45;&gt;AppModule -->
<g id="edge6" class="edge">
<title>FormsModule&#45;&gt;AppModule</title>
<path fill="none" stroke="#000000" d="M942.0821,-122.1061C942.0821,-122.1061 942.0821,-140.991 942.0821,-140.991"/>
<polygon fill="#000000" stroke="#000000" points="938.5821,-140.9909 942.0821,-150.991 945.5821,-140.991 938.5821,-140.9909"/>
</g>
<!-- HttpModule -->
<g id="node8" class="node">
<title>HttpModule</title>
<polygon fill="#8dd3c7" stroke="#000000" points="906.4387,-122 903.4387,-126 882.4387,-126 879.4387,-122 821.5613,-122 821.5613,-86 906.4387,-86 906.4387,-122"/>
<text text-anchor="middle" x="864" y="-99.8" font-family="Times,serif" font-size="14.00" fill="#000000">HttpModule</text>
</g>
<!-- HttpModule&#45;&gt;AppModule -->
<g id="edge7" class="edge">
<title>HttpModule&#45;&gt;AppModule</title>
<path fill="none" stroke="#000000" d="M891.1953,-122.1061C891.1953,-122.1061 891.1953,-140.991 891.1953,-140.991"/>
<polygon fill="#000000" stroke="#000000" points="887.6954,-140.9909 891.1953,-150.991 894.6954,-140.991 887.6954,-140.9909"/>
</g>
<!-- Ng2SmartTableModule -->
<g id="node9" class="node">
<title>Ng2SmartTableModule</title>
<polygon fill="#8dd3c7" stroke="#000000" points="803.4678,-122 800.4678,-126 779.4678,-126 776.4678,-122 654.5322,-122 654.5322,-86 803.4678,-86 803.4678,-122"/>
<text text-anchor="middle" x="729" y="-99.8" font-family="Times,serif" font-size="14.00" fill="#000000">Ng2SmartTableModule</text>
</g>
<!-- Ng2SmartTableModule&#45;&gt;AppModule -->
<g id="edge8" class="edge">
<title>Ng2SmartTableModule&#45;&gt;AppModule</title>
<path fill="none" stroke="#000000" d="M729,-122.2396C729,-137.5706 729,-157 729,-157 729,-157 866.0548,-157 866.0548,-157"/>
<polygon fill="#000000" stroke="#000000" points="866.0548,-160.5001 876.0548,-157 866.0547,-153.5001 866.0548,-160.5001"/>
</g>
<!-- AppRoutingModule -->
<g id="node10" class="node">
<title>AppRoutingModule</title>
<polygon fill="#8dd3c7" stroke="#000000" points="636.2744,-122 633.2744,-126 612.2744,-126 609.2744,-122 507.7256,-122 507.7256,-86 636.2744,-86 636.2744,-122"/>
<text text-anchor="middle" x="572" y="-99.8" font-family="Times,serif" font-size="14.00" fill="#000000">AppRoutingModule</text>
</g>
<!-- AppRoutingModule&#45;&gt;AppModule -->
<g id="edge9" class="edge">
<title>AppRoutingModule&#45;&gt;AppModule</title>
<path fill="none" stroke="#000000" d="M572,-122.0225C572,-139.3734 572,-163 572,-163 572,-163 866.2643,-163 866.2643,-163"/>
<polygon fill="#000000" stroke="#000000" points="866.2644,-166.5001 876.2643,-163 866.2643,-159.5001 866.2644,-166.5001"/>
</g>
<!-- MdCheckboxModule -->
<g id="node11" class="node">
<title>MdCheckboxModule</title>
<polygon fill="#8dd3c7" stroke="#000000" points="489.7604,-122 486.7604,-126 465.7604,-126 462.7604,-122 354.2396,-122 354.2396,-86 489.7604,-86 489.7604,-122"/>
<text text-anchor="middle" x="422" y="-99.8" font-family="Times,serif" font-size="14.00" fill="#000000">MdCheckboxModule</text>
</g>
<!-- MdCheckboxModule&#45;&gt;AppModule -->
<g id="edge10" class="edge">
<title>MdCheckboxModule&#45;&gt;AppModule</title>
<path fill="none" stroke="#000000" d="M422,-122.1061C422,-141.3391 422,-169 422,-169 422,-169 866.1388,-169 866.1388,-169"/>
<polygon fill="#000000" stroke="#000000" points="866.1388,-172.5001 876.1388,-169 866.1388,-165.5001 866.1388,-172.5001"/>
</g>
<!-- BrowserAnimationsModule -->
<g id="node12" class="node">
<title>BrowserAnimationsModule</title>
<polygon fill="#8dd3c7" stroke="#000000" points="336.3019,-122 333.3019,-126 312.3019,-126 309.3019,-122 163.6981,-122 163.6981,-86 336.3019,-86 336.3019,-122"/>
<text text-anchor="middle" x="250" y="-99.8" font-family="Times,serif" font-size="14.00" fill="#000000">BrowserAnimationsModule</text>
</g>
<!-- BrowserAnimationsModule&#45;&gt;AppModule -->
<g id="edge11" class="edge">
<title>BrowserAnimationsModule&#45;&gt;AppModule</title>
<path fill="none" stroke="#000000" d="M250,-122.2843C250,-143.3211 250,-175 250,-175 250,-175 866.2136,-175 866.2136,-175"/>
<polygon fill="#000000" stroke="#000000" points="866.2136,-178.5001 876.2136,-175 866.2136,-171.5001 866.2136,-178.5001"/>
</g>
<!-- DataService -->
<g id="node14" class="node">
<title>DataService</title>
<ellipse fill="#fdb462" stroke="#000000" cx="82" cy="-104" rx="58.4415" ry="18"/>
<text text-anchor="middle" x="82" y="-99.8" font-family="Times,serif" font-size="14.00" fill="#000000">DataService</text>
</g>
<!-- DataService&#45;&gt;AppModule -->
<g id="edge13" class="edge">
<title>DataService&#45;&gt;AppModule</title>
<path fill="none" stroke="#000000" d="M82,-122.2479C82,-145.0179 82,-181 82,-181 82,-181 866.2566,-181 866.2566,-181"/>
<polygon fill="#000000" stroke="#000000" points="866.2566,-184.5001 876.2566,-181 866.2566,-177.5001 866.2566,-184.5001"/>
</g>
</g>
</svg>
