<?xml version="1.0" encoding="UTF-8" standalone="no"?>
<!DOCTYPE svg PUBLIC "-//W3C//DTD SVG 1.1//EN"
 "http://www.w3.org/Graphics/SVG/1.1/DTD/svg11.dtd">
<!-- Generated by graphviz version 2.40.1 (20161225.0304)
 -->
<!-- Title: dependencies Pages: 1 -->
<svg width="1381pt" height="290pt"
 viewBox="0.00 0.00 1381.00 290.00" xmlns="http://www.w3.org/2000/svg" xmlns:xlink="http://www.w3.org/1999/xlink">
<g id="graph0" class="graph" transform="scale(1 1) rotate(0) translate(4 286)">
<title>dependencies</title>
<polygon fill="#ffffff" stroke="transparent" points="-4,4 -4,-286 1377,-286 1377,4 -4,4"/>
<text text-anchor="start" x="665.5091" y="-42.4" font-family="sans-serif" font-weight="bold" font-size="14.00" fill="#000000">Legend</text>
<polygon fill="#ffffb3" stroke="transparent" points="452.5,-10 452.5,-30 472.5,-30 472.5,-10 452.5,-10"/>
<text text-anchor="start" x="476.129" y="-15.4" font-family="sans-serif" font-size="14.00" fill="#000000"> &#160;Declarations</text>
<polygon fill="#8dd3c7" stroke="transparent" points="565.5,-10 565.5,-30 585.5,-30 585.5,-10 565.5,-10"/>
<text text-anchor="start" x="589.2251" y="-15.4" font-family="sans-serif" font-size="14.00" fill="#000000"> &#160;Module</text>
<polygon fill="#80b1d3" stroke="transparent" points="651.5,-10 651.5,-30 671.5,-30 671.5,-10 651.5,-10"/>
<text text-anchor="start" x="675.2812" y="-15.4" font-family="sans-serif" font-size="14.00" fill="#000000"> &#160;Bootstrap</text>
<polygon fill="#fdb462" stroke="transparent" points="748.5,-10 748.5,-30 768.5,-30 768.5,-10 748.5,-10"/>
<text text-anchor="start" x="772.1732" y="-15.4" font-family="sans-serif" font-size="14.00" fill="#000000"> &#160;Providers</text>
<polygon fill="#fb8072" stroke="transparent" points="844.5,-10 844.5,-30 864.5,-30 864.5,-10 844.5,-10"/>
<text text-anchor="start" x="868.2258" y="-15.4" font-family="sans-serif" font-size="14.00" fill="#000000"> &#160;Exports</text>
<g id="clust1" class="cluster">
<title>cluster_AppModule</title>
<polygon fill="none" stroke="#000000" stroke-dasharray="1,5" points="8,-70 8,-274 1021,-274 1021,-70 8,-70"/>
</g>
<g id="clust3" class="cluster">
<title>cluster_AppModule_imports</title>
<polygon fill="none" stroke="#000000" points="16,-78 16,-130 1013,-130 1013,-78 16,-78"/>
</g>
<g id="clust5" class="cluster">
<title>cluster_AppModule_bootstrap</title>
<polygon fill="none" stroke="#000000" points="516,-214 516,-266 640,-266 640,-214 516,-214"/>
</g>
<g id="clust7" class="cluster">
<title>cluster_AppRoutingModule</title>
<polygon fill="none" stroke="#000000" stroke-dasharray="1,5" points="1029,-138 1029,-206 1365,-206 1365,-138 1029,-138"/>
</g>
<g id="clust9" class="cluster">
<title>cluster_AppRoutingModule_imports</title>
<polygon fill="none" stroke="#000000" points="1163,-146 1163,-198 1357,-198 1357,-146 1163,-146"/>
</g>
<g id="clust10" class="cluster">
<title>cluster_AppRoutingModule_exports</title>
<polygon fill="none" stroke="#000000" points="1037,-146 1037,-198 1155,-198 1155,-146 1037,-146"/>
</g>
<!-- BrowserModule -->
<g id="node1" class="node">
<title>BrowserModule</title>
<polygon fill="#8dd3c7" stroke="#000000" points="858.4734,-122 855.4734,-126 834.4734,-126 831.4734,-122 751.5266,-122 751.5266,-86 858.4734,-86 858.4734,-122"/>
<text text-anchor="middle" x="805" y="-99.8" font-family="Times,serif" font-size="14.00" fill="#000000">BrowserModule</text>
</g>
<!-- AppModule -->
<g id="node8" class="node">
<title>AppModule</title>
<polygon fill="#8dd3c7" stroke="#000000" points="619.6571,-190 616.6571,-194 595.6571,-194 592.6571,-190 536.3429,-190 536.3429,-154 619.6571,-154 619.6571,-190"/>
<text text-anchor="middle" x="578" y="-167.8" font-family="Times,serif" font-size="14.00" fill="#000000">AppModule</text>
</g>
<!-- BrowserModule&#45;&gt;AppModule -->
<g id="edge1" class="edge">
<title>BrowserModule&#45;&gt;AppModule</title>
<path fill="none" stroke="#000000" d="M805,-122.2228C805,-142.3652 805,-172 805,-172 805,-172 629.8998,-172 629.8998,-172"/>
<polygon fill="#000000" stroke="#000000" points="629.8999,-168.5001 619.8998,-172 629.8998,-175.5001 629.8999,-168.5001"/>
</g>
<!-- FormsModule -->
<g id="node2" class="node">
<title>FormsModule</title>
<polygon fill="#8dd3c7" stroke="#000000" points="733.8288,-122 730.8288,-126 709.8288,-126 706.8288,-122 638.1712,-122 638.1712,-86 733.8288,-86 733.8288,-122"/>
<text text-anchor="middle" x="686" y="-99.8" font-family="Times,serif" font-size="14.00" fill="#000000">FormsModule</text>
</g>
<!-- FormsModule&#45;&gt;AppModule -->
<g id="edge2" class="edge">
<title>FormsModule&#45;&gt;AppModule</title>
<path fill="none" stroke="#000000" d="M686,-122.0225C686,-139.3734 686,-163 686,-163 686,-163 629.7556,-163 629.7556,-163"/>
<polygon fill="#000000" stroke="#000000" points="629.7557,-159.5001 619.7556,-163 629.7556,-166.5001 629.7557,-159.5001"/>
</g>
<!-- HttpModule -->
<g id="node3" class="node">
<title>HttpModule</title>
<polygon fill="#8dd3c7" stroke="#000000" points="620.4387,-122 617.4387,-126 596.4387,-126 593.4387,-122 535.5613,-122 535.5613,-86 620.4387,-86 620.4387,-122"/>
<text text-anchor="middle" x="578" y="-99.8" font-family="Times,serif" font-size="14.00" fill="#000000">HttpModule</text>
</g>
<!-- HttpModule&#45;&gt;AppModule -->
<g id="edge3" class="edge">
<title>HttpModule&#45;&gt;AppModule</title>
<path fill="none" stroke="#000000" d="M578,-122.2228C578,-122.2228 578,-143.7269 578,-143.7269"/>
<polygon fill="#000000" stroke="#000000" points="574.5001,-143.7269 578,-153.7269 581.5001,-143.727 574.5001,-143.7269"/>
</g>
<!-- Ng2SmartTableModule -->
<g id="node4" class="node">
<title>Ng2SmartTableModule</title>
<polygon fill="#8dd3c7" stroke="#000000" points="517.4678,-122 514.4678,-126 493.4678,-126 490.4678,-122 368.5322,-122 368.5322,-86 517.4678,-86 517.4678,-122"/>
<text text-anchor="middle" x="443" y="-99.8" font-family="Times,serif" font-size="14.00" fill="#000000">Ng2SmartTableModule</text>
</g>
<!-- Ng2SmartTableModule&#45;&gt;AppModule -->
<g id="edge4" class="edge">
<title>Ng2SmartTableModule&#45;&gt;AppModule</title>
<path fill="none" stroke="#000000" d="M443,-122.0225C443,-139.3734 443,-163 443,-163 443,-163 526.0252,-163 526.0252,-163"/>
<polygon fill="#000000" stroke="#000000" points="526.0252,-166.5001 536.0252,-163 526.0251,-159.5001 526.0252,-166.5001"/>
</g>
<!-- AppRoutingModule -->
<g id="node5" class="node">
<title>AppRoutingModule</title>
<polygon fill="#8dd3c7" stroke="#000000" points="1005.2744,-122 1002.2744,-126 981.2744,-126 978.2744,-122 876.7256,-122 876.7256,-86 1005.2744,-86 1005.2744,-122"/>
<text text-anchor="middle" x="941" y="-99.8" font-family="Times,serif" font-size="14.00" fill="#000000">AppRoutingModule</text>
</g>
<!-- AppRoutingModule&#45;&gt;AppModule -->
<g id="edge5" class="edge">
<title>AppRoutingModule&#45;&gt;AppModule</title>
<path fill="none" stroke="#000000" d="M941,-122.2479C941,-145.0179 941,-181 941,-181 941,-181 629.9953,-181 629.9953,-181"/>
<polygon fill="#000000" stroke="#000000" points="629.9954,-177.5001 619.9953,-181 629.9953,-184.5001 629.9954,-177.5001"/>
</g>
<!-- RouterModule  -->
<g id="node11" class="node">
<title>RouterModule </title>
<polygon fill="#fb8072" stroke="#000000" points="1146.6523,-190 1045.3477,-190 1045.3477,-154 1146.6523,-154 1146.6523,-190"/>
<text text-anchor="middle" x="1096" y="-167.8" font-family="Times,serif" font-size="14.00" fill="#000000">RouterModule </text>
</g>
<!-- AppRoutingModule&#45;&gt;RouterModule  -->
<g id="edge10" class="edge">
<title>AppRoutingModule&#45;&gt;RouterModule </title>
<path fill="none" stroke="#000000" stroke-dasharray="5,2" d="M1005.3874,-110C1047.9734,-110 1096,-110 1096,-110 1096,-110 1096,-143.7333 1096,-143.7333"/>
<polygon fill="#000000" stroke="#000000" points="1092.5001,-143.7333 1096,-153.7333 1099.5001,-143.7333 1092.5001,-143.7333"/>
</g>
<!-- MdCheckboxModule -->
<g id="node6" class="node">
<title>MdCheckboxModule</title>
<polygon fill="#8dd3c7" stroke="#000000" points="159.7604,-122 156.7604,-126 135.7604,-126 132.7604,-122 24.2396,-122 24.2396,-86 159.7604,-86 159.7604,-122"/>
<text text-anchor="middle" x="92" y="-99.8" font-family="Times,serif" font-size="14.00" fill="#000000">MdCheckboxModule</text>
</g>
<!-- MdCheckboxModule&#45;&gt;AppModule -->
<g id="edge6" class="edge">
<title>MdCheckboxModule&#45;&gt;AppModule</title>
<path fill="none" stroke="#000000" d="M92,-122.2479C92,-145.0179 92,-181 92,-181 92,-181 526.1433,-181 526.1433,-181"/>
<polygon fill="#000000" stroke="#000000" points="526.1433,-184.5001 536.1433,-181 526.1432,-177.5001 526.1433,-184.5001"/>
</g>
<!-- BrowserAnimationsModule -->
<g id="node7" class="node">
<title>BrowserAnimationsModule</title>
<polygon fill="#8dd3c7" stroke="#000000" points="350.3019,-122 347.3019,-126 326.3019,-126 323.3019,-122 177.6981,-122 177.6981,-86 350.3019,-86 350.3019,-122"/>
<text text-anchor="middle" x="264" y="-99.8" font-family="Times,serif" font-size="14.00" fill="#000000">BrowserAnimationsModule</text>
</g>
<!-- BrowserAnimationsModule&#45;&gt;AppModule -->
<g id="edge7" class="edge">
<title>BrowserAnimationsModule&#45;&gt;AppModule</title>
<path fill="none" stroke="#000000" d="M264,-122.2228C264,-142.3652 264,-172 264,-172 264,-172 526.3032,-172 526.3032,-172"/>
<polygon fill="#000000" stroke="#000000" points="526.3033,-175.5001 536.3032,-172 526.3032,-168.5001 526.3033,-175.5001"/>
</g>
<!-- AppComponent  -->
<g id="node9" class="node">
<title>AppComponent </title>
<polygon fill="#80b1d3" stroke="#000000" points="632.439,-258 523.561,-258 523.561,-222 632.439,-222 632.439,-258"/>
<text text-anchor="middle" x="578" y="-235.8" font-family="Times,serif" font-size="14.00" fill="#000000">AppComponent </text>
</g>
<!-- AppModule&#45;&gt;AppComponent  -->
<g id="edge8" class="edge">
<title>AppModule&#45;&gt;AppComponent </title>
<path fill="none" stroke="#000000" stroke-dasharray="1,5" d="M578,-190.2228C578,-190.2228 578,-211.7269 578,-211.7269"/>
<polygon fill="#000000" stroke="#000000" points="574.5001,-211.7269 578,-221.7269 581.5001,-211.727 574.5001,-211.7269"/>
</g>
<!-- RouterModule.forRoot(args) -->
<g id="node10" class="node">
<title>RouterModule.forRoot(args)</title>
<polygon fill="#8dd3c7" stroke="#000000" points="1348.8419,-190 1345.8419,-194 1324.8419,-194 1321.8419,-190 1171.1581,-190 1171.1581,-154 1348.8419,-154 1348.8419,-190"/>
<text text-anchor="middle" x="1260" y="-167.8" font-family="Times,serif" font-size="14.00" fill="#000000">RouterModule.forRoot(args)</text>
</g>
<!-- RouterModule.forRoot(args)&#45;&gt;AppRoutingModule -->
<g id="edge9" class="edge">
<title>RouterModule.forRoot(args)&#45;&gt;AppRoutingModule</title>
<path fill="none" stroke="#000000" d="M1260,-153.7079C1260,-131.7943 1260,-98 1260,-98 1260,-98 1015.5544,-98 1015.5544,-98"/>
<polygon fill="#000000" stroke="#000000" points="1015.5544,-94.5001 1005.5544,-98 1015.5544,-101.5001 1015.5544,-94.5001"/>
</g>
</g>
</svg>
